<?xml version="1.0" standalone="no"?>
<!DOCTYPE svg PUBLIC "-//W3C//DTD SVG 20010904//EN"
 "http://www.w3.org/TR/2001/REC-SVG-20010904/DTD/svg10.dtd">
<svg version="1.0" xmlns="http://www.w3.org/2000/svg"
 width="270.000000pt" height="270.000000pt" viewBox="0 0 270.000000 270.000000"
 preserveAspectRatio="xMidYMid meet">
<metadata>
Created by potrace 1.11, written by Peter Selinger 2001-2013
</metadata>
<g transform="translate(0.000000,270.000000) scale(0.100000,-0.100000)"
fill="#000000" stroke="none">
<path d="M460 2580 c-11 -7 -12 -12 -3 -21 15 -15 48 -7 48 11 0 18 -24 24
-45 10z"/>
<path d="M1256 2561 c-12 -13 -21 -48 -27 -103 -5 -46 -18 -112 -29 -148 -10
-36 -24 -96 -29 -135 -6 -38 -15 -86 -21 -105 -13 -44 -13 -101 0 -135 7 -19
16 -26 32 -23 32 4 45 39 58 148 6 52 20 127 30 165 11 39 24 111 31 160 8 67
17 99 36 127 14 21 23 44 19 53 -8 23 -78 20 -100 -4z"/>
<path d="M746 2549 c-9 -13 -16 -31 -16 -41 0 -10 -9 -44 -20 -75 -11 -32 -24
-100 -29 -151 -7 -65 -16 -103 -31 -128 -39 -62 -28 -263 15 -268 6 0 15 17
22 39 17 60 61 261 71 330 5 33 17 89 26 125 9 36 18 76 21 90 3 14 9 31 13
38 14 21 71 29 152 21 81 -7 90 -5 71 14 -7 7 -43 12 -94 13 -45 0 -105 4
-133 8 -47 7 -53 5 -68 -15z"/>
<path d="M143 2550 c-30 -12 -37 -48 -25 -123 6 -34 14 -84 17 -110 4 -27 13
-67 21 -90 8 -23 21 -89 29 -147 8 -58 21 -121 29 -140 8 -20 19 -76 24 -126
6 -50 19 -117 30 -150 11 -32 23 -95 27 -139 8 -91 41 -177 77 -197 17 -9 72
-13 204 -13 166 0 184 2 203 19 28 26 25 72 -4 69 -11 -1 -90 -3 -176 -5 -115
-2 -160 1 -172 10 -23 19 -46 100 -62 215 -7 56 -20 122 -28 147 -9 25 -21 83
-27 130 -6 47 -20 114 -30 150 -10 36 -22 96 -25 134 -4 38 -15 96 -26 128
-26 83 -35 181 -18 194 8 6 49 14 92 18 43 3 90 12 105 21 25 13 16 14 -108
14 -74 0 -145 -4 -157 -9z"/>
<path d="M1494 2542 c3 -5 31 -12 63 -15 32 -4 71 -10 86 -13 25 -6 28 -4 25
12 -3 17 -14 19 -91 22 -51 2 -86 -1 -83 -6z"/>
<path d="M917 1965 c-49 -49 -43 -243 9 -305 7 -9 20 -58 28 -110 8 -52 25
-122 38 -155 22 -54 28 -61 64 -72 48 -14 306 -17 355 -3 22 6 40 19 46 33 21
46 9 49 -181 46 -103 -2 -180 1 -185 6 -17 18 -58 158 -66 225 -4 36 -16 88
-26 115 -10 28 -23 86 -29 130 -12 90 -27 116 -53 90z"/>
<path d="M1631 1376 c-64 -23 -61 6 -61 -623 l0 -574 25 -25 25 -25 373 3
c359 3 373 4 402 24 17 12 44 26 60 31 32 11 115 82 115 98 0 6 9 18 20 28 20
17 26 38 13 50 -3 4 -21 -8 -39 -25 -59 -59 -97 -88 -113 -88 -9 0 -35 -10
-56 -22 -39 -22 -50 -23 -371 -26 -271 -2 -333 -1 -342 11 -15 17 -17 1053 -2
1112 17 71 14 74 -49 51z"/>
<path d="M1718 1383 c6 -2 18 -2 25 0 6 3 1 5 -13 5 -14 0 -19 -2 -12 -5z"/>
<path d="M1768 1373 c7 -3 16 -2 19 1 4 3 -2 6 -13 5 -11 0 -14 -3 -6 -6z"/>
<path d="M1933 1373 c15 -2 37 -2 50 0 12 2 0 4 -28 4 -27 0 -38 -2 -22 -4z"/>
<path d="M2064 1081 c-24 -11 -39 -40 -26 -53 5 -5 22 -11 38 -14 49 -9 58
-25 38 -67 -10 -21 -24 -37 -31 -37 -22 0 -14 -28 10 -32 41 -7 112 37 128 80
11 27 -8 78 -39 105 -24 22 -87 31 -118 18z"/>
<path d="M2496 836 c-51 -46 -59 -78 -20 -84 16 -2 28 7 45 35 33 53 38 68 30
81 -5 8 -23 -3 -55 -32z"/>
<path d="M2046 677 c-11 -8 -17 -23 -14 -38 2 -19 9 -24 33 -24 29 -1 85 -39
85 -58 0 -5 -13 -25 -30 -44 -49 -56 -33 -79 37 -52 52 19 73 48 73 99 0 43
-4 51 -45 89 -36 33 -52 41 -83 41 -21 0 -46 -6 -56 -13z"/>
</g>
</svg>
